:SAMPLES-PER-SECOND 30
:FULLY-SPECIFIED
:DEGREES
66
root  15.3413 39.7567 29.8778 112.992 -88.5289 -115.978
RightUpLeg  6.66451 -9.85359 -1.7515
RightLeg  14.9393 -1.98777 3.0944
RightFoot  -15.2575 -0.201354 -2.88797
RightToes  2.32829e-010 0 -3.6325e-017
Spine  3.00016 1.70951 12.6449
Spine1  9.82658 3.56993 -5.56436
HEad  -8.08315 -1.64647 -2.75125
LeftShoulder1  8.91397 -12.5811 -48.3764
LeftArm  -6.43853 25.3745 -26.7357
LeftForeArm  29.0259 -7.30662 -6.14535
LeftHand  -0.244104 0.0205437 5.32207
RightShoulder  6.52288 10.0957 41.719
RightArm  11.2222 3.53135 32.1368
RightForeArm  0.469538 37.5165 8.58204
RightHand  -0.848105 0.752863 -16.0843
LeftUpLeg  -22.5117 10.7579 2.33078
LeftLeg  20.2575 3.57589 1.48529
LeftFoot  0.780106 0.467 -4.45221
LeftToes  -2.63786e-011 3.77076e-011 -4.2586e-012
67
root  13.6221 39.6286 30.0176 150.418 -87.8965 -153.343
RightUpLeg  10.1642 -9.81243 -3.11365
RightLeg  13.3976 -0.309964 3.35917
RightFoot  -16.4346 -0.193992 -1.87932
RightToes  2.32829e-010 0 -3.6325e-017
Spine  2.48377 2.09358 12.0428
Spine1  10.46 4.07077 -6.3274
HEad  -8.04849 -1.14799 -2.58164
LeftShoulder1  8.80694 -12.4653 -48.1393
LeftArm  -6.64515 29.0669 -26.5249
LeftForeArm  27.9972 -8.02095 -5.99174
LeftHand  -0.244104 0.0205437 5.32207
RightShoulder  6.58727 10.2035 41.8053
RightArm  11.734 4.87475 32.4192
RightForeArm  1.42725 39.2167 9.05564
RightHand  -0.838545 0.68869 -16.0679
LeftUpLeg  -21.0793 8.68786 3.8003
LeftLeg  6.86407 4.95658 -1.29327
LeftFoot  1.34687 0.445189 -4.08934
LeftToes  -2.63786e-011 3.77076e-011 -4.2586e-012
68
root  11.8092 39.3403 30.2187 157.932 -86.6929 -161.071
RightUpLeg  13.336 -10.2257 -4.36461
RightLeg  13.4918 1.84184 3.3473
RightFoot  -17.4978 -0.147124 -0.523394
RightToes  2.32829e-010 0 -3.6325e-017
Spine  1.9989 2.41157 12.0658
Spine1  11.1185 4.56013 -6.96633
HEad  -7.84222 -0.772903 -2.09034
LeftShoulder1  8.66151 -12.3084 -47.8088
LeftArm  -7.06416 32.1381 -26.65
LeftForeArm  27.0005 -8.25063 -5.77511
LeftHand  -0.244104 0.0205437 5.32207
RightShoulder  6.66576 10.2935 42.0438
RightArm  11.9672 5.677 32.6958
RightForeArm  2.22279 39.6318 9.14185
RightHand  -0.857172 0.737596 -16.2911
LeftUpLeg  -19.6253 4.5233 6.71545
LeftLeg  -2.50904 8.09517 -3.82917
LeftFoot  -0.647087 0.504099 -5.35097
LeftToes  -2.63786e-011 3.77076e-011 -4.2586e-012
69
root  9.91227 38.9917 30.5038 159.516 -85.6782 -162.91
RightUpLeg  16.101 -10.9594 -5.89399
RightLeg  14.7617 4.10179 3.02608
RightFoot  -18.15 -0.0702617 0.871724
RightToes  2.32829e-010 0 -3.6325e-017
Spine  1.38508 2.65369 12.4845
Spine1  11.8103 5.08657 -7.83989
HEad  -7.16862 -0.87171 -1.28955
LeftShoulder1  8.45858 -12.0968 -47.3132
LeftArm  -7.70424 34.3078 -27.1139
LeftForeArm  26.3192 -7.62765 -5.49544
LeftHand  -0.244104 0.0205437 5.32207
RightShoulder  6.70948 10.2933 42.3395
RightArm  11.9453 5.68834 32.9184
RightForeArm  2.60772 38.8261 8.86087
RightHand  -0.920751 1.1012 -16.5339
LeftUpLeg  -19.7198 5.43409 6.96727
LeftLeg  -4.20597 8.67312 -4.38289
LeftFoot  -1.54585 0.508552 -5.81652
LeftToes  -2.63786e-011 3.77076e-011 -4.2586e-012
70
root  7.96702 38.6785 30.8311 167.726 -85.346 -171.496
RightUpLeg  18.6444 -10.9133 -8.03924
RightLeg  16.5514 5.891 2.46764
RightFoot  -18.4227 0.139049 4.17864
RightToes  2.32829e-010 0 -3.6325e-017
Spine  0.886297 2.85284 11.7435
Spine1  12.3578 5.48392 -8.31808
HEad  -6.2302 -1.72636 -0.0329465
LeftShoulder1  8.29935 -11.8932 -47.0305
LeftArm  -8.14697 35.5588 -27.4289
LeftForeArm  25.8159 -6.35041 -5.21572
LeftHand  -0.244104 0.0205437 5.32207
RightShoulder  6.77984 10.2914 42.8184
RightArm  11.6213 4.61213 32.723
RightForeArm  2.18857 36.9841 8.32017
RightHand  -1.00499 1.6034 -16.7669
LeftUpLeg  -20.691 5.70818 5.91118
LeftLeg  0.237358 12.0206 -3.90787
LeftFoot  2.47778 0.381758 -3.41699
LeftToes  -2.63786e-011 3.77076e-011 -4.2586e-012
71
root  5.95993 38.3523 31.1543 -175.411 -85.506 170.83
RightUpLeg  20.4222 -8.73217 -10.133
RightLeg  20.3584 5.35227 1.91879
RightFoot  -17.3725 0.387508 9.95483
RightToes  2.32829e-010 0 -3.6325e-017
Spine  0.807009 3.08725 9.22258
Spine1  12.2391 5.43978 -7.50156
HEad  -4.47581 -3.14254 0.806674
LeftShoulder1  8.26621 -11.7607 -47.2521
LeftArm  -8.1289 35.852 -27.1015
LeftForeArm  25.4882 -4.93385 -5.064
LeftHand  -0.244104 0.0205437 5.32207
RightShoulder  6.91945 10.3383 43.5961
RightArm  10.9774 2.55285 32.1987
RightForeArm  1.10256 33.7795 7.4695
RightHand  -1.10453 2.10823 -17.1919
LeftUpLeg  -22.1499 7.8362 2.71938
LeftLeg  8.25583 11.218 -1.56982
LeftFoot  8.75424 -0.00287223 -0.26229
LeftToes  -2.63786e-011 3.77076e-011 -4.2586e-012
72
root  3.99607 38.1563 31.4401 -150.386 -85.621 144.806
RightUpLeg  19.8938 -5.58861 -11.5374
RightLeg  27.8216 1.47758 0.540008
RightFoot  -11.6107 -0.0406645 14.0756
RightToes  2.32829e-010 0 -3.6325e-017
Spine  1.28119 3.11751 5.81479
Spine1  11.5346 5.04336 -6.09393
HEad  -3.10957 -5.13131 2.01737
LeftShoulder1  8.31311 -11.7163 -47.6652
LeftArm  -7.83153 34.9818 -26.3211
LeftForeArm  25.4534 -3.97244 -5.04994
LeftHand  -0.244104 0.0205437 5.32207
RightShoulder  7.02805 10.3269 44.3548
RightArm  10.6061 0.237228 32.2527
RightForeArm  -0.992549 28.5219 6.14418
RightHand  -1.25417 2.83291 -17.8093
LeftUpLeg  -22.9533 12.9603 -2.43869
LeftLeg  15.4738 3.79824 0.795759
LeftFoot  11.0188 -0.422089 1.83902
LeftToes  -2.63786e-011 3.77076e-011 -4.2586e-012
73
root  2.21523 38.1995 31.7024 -128.712 -84.9324 122.311
RightUpLeg  15.9232 -3.34893 -12.3789
RightLeg  38.726 -2.72443 -2.62929
RightFoot  -0.55412 -1.1281 12.4237
RightToes  2.32829e-010 0 -3.6325e-017
Spine  2.19366 2.90939 3.28212
Spine1  10.8525 4.7874 -5.7639
HEad  -1.98459 -7.21378 2.85071
LeftShoulder1  8.36982 -11.7572 -47.8651
LeftArm  -7.95334 32.9265 -25.7274
LeftForeArm  25.6153 -4.05706 -5.01623
LeftHand  -0.244104 0.0205437 5.32207
RightShoulder  7.03519 10.2514 44.656
RightArm  9.20605 -1.47948 33.2779
RightForeArm  -2.65532 21.1041 5.48424
RightHand  -1.38349 3.55899 -18.071
LeftUpLeg  -22.0914 13.4488 -4.96667
LeftLeg  20.5753 1.81761 1.19854
LeftFoot  7.6413 -0.557091 3.05589
LeftToes  -2.63786e-011 3.77076e-011 -4.2586e-012
74
root  0.690955 38.362 31.9346 -123.367 -83.5499 116.374
RightUpLeg  9.42563 -1.11733 -12.5862
RightLeg  50.0393 -4.22473 -5.67151
RightFoot  9.37547 -1.31045 7.41796
RightToes  2.32829e-010 0 -3.6325e-017
Spine  3.39446 2.80158 2.02472
Spine1  10.6508 4.8757 -6.69252
HEad  -1.0818 -9.08214 3.03554
LeftShoulder1  8.4235 -11.84 -47.9132
LeftArm  -9.14564 30.121 -25.7187
LeftForeArm  25.2667 -5.60187 -4.80851
LeftHand  -0.244104 0.0205437 5.32207
RightShoulder  7.06507 10.3126 44.6467
RightArm  1.52697 -2.36507 34.0918
RightForeArm  2.83534 12.5752 7.67589
RightHand  -1.3213 3.47114 -17.4274
LeftUpLeg  -19.9678 13.982 -6.30655
LeftLeg  23.1601 2.09482 1.31744
LeftFoot  3.04449 -0.472581 3.58462
LeftToes  -2.63786e-011 3.77076e-011 -4.2586e-012
75
root  -0.709643 38.6285 32.1139 -127.563 -82.3857 120.034
RightUpLeg  2.61872 0.70761 -12.0967
RightLeg  58.6414 -3.63345 -6.85547
RightFoot  12.284 -0.803761 4.17646
RightToes  2.32829e-010 0 -3.6325e-017
Spine  4.59186 2.72767 1.35671
Spine1  10.6657 4.86298 -7.22986
HEad  -0.261656 -10.6265 2.81867
LeftShoulder1  8.44358 -11.8617 -47.9605
LeftArm  -11.3092 27.1177 -26.2745
LeftForeArm  23.6634 -8.615 -4.46129
LeftHand  -0.244104 0.0205437 5.32207
RightShoulder  7.23754 10.5983 44.8163
RightArm  -2.78187 -3.14517 34.0838
RightForeArm  8.21264 6.45212 8.41421
RightHand  -1.10439 2.52296 -16.3266
LeftUpLeg  -16.8497 15.5957 -6.73837
LeftLeg  23.2762 2.01379 1.28898
LeftFoot  0.602913 -0.396559 3.75155
LeftToes  -2.63786e-011 3.77076e-011 -4.2586e-012
76
root  -2.08416 39.0532 32.2376 -131.696 -82.1524 123.707
RightUpLeg  -3.14742 0.87035 -10.8834
RightLeg  62.7421 -3.18399 -7.26603
RightFoot  9.72863 -0.599604 3.62072
RightToes  2.32829e-010 0 -3.6325e-017
Spine  5.43159 2.28816 0.838122
Spine1  10.5833 4.2101 -6.33998
HEad  0.46383 -12.2421 2.94112
LeftShoulder1  8.37197 -11.7643 -47.8545
LeftArm  -13.1742 24.2094 -27.1388
LeftForeArm  20.8552 -12.9397 -4.04834
LeftHand  -0.244104 0.0205437 5.32207
RightShoulder  7.40993 10.8588 45.0634
RightArm  -1.2557 -4.54189 33.5664
RightForeArm  12.2227 4.68109 8.35232
RightHand  -0.951678 1.68607 -15.7242
LeftUpLeg  -13.0037 17.3201 -6.12534
LeftLeg  21.5958 0.998562 0.783425
LeftFoot  -0.175141 -0.368171 3.77524
LeftToes  -2.63786e-011 3.77076e-011 -4.2586e-012
77
root  -3.39731 39.4911 32.3107 -131.791 -82.5563 123.602
RightUpLeg  -7.94083 -0.695212 -9.52237
RightLeg  62.4978 -3.72384 -8.2694
RightFoot  5.62031 -0.618684 4.38704
RightToes  2.32829e-010 0 -3.6325e-017
Spine  5.94474 1.50836 -0.0442319
Spine1  10.4825 2.97842 -4.81197
HEad  1.23036 -14.5684 3.64798
LeftShoulder1  8.2353 -11.6131 -47.539
LeftArm  -14.1098 21.6256 -27.7455
LeftForeArm  18.8018 -18.6676 -3.75924
LeftHand  -0.244104 0.0205437 5.32207
RightShoulder  7.33005 10.8034 44.7344
RightArm  1.01301 -6.79531 33.2025
RightForeArm  16.1703 6.07259 8.53677
RightHand  -0.925968 1.51076 -15.6752
LeftUpLeg  -9.26812 18.6283 -5.24852
LeftLeg  19.4063 -0.313453 0.185798
LeftFoot  -0.950095 -0.321271 3.5942
LeftToes  -2.63786e-011 3.77076e-011 -4.2586e-012
